<?xml version="1.0" standalone="no"?>
<!DOCTYPE svg PUBLIC "-//W3C//DTD SVG 20010904//EN"
 "http://www.w3.org/TR/2001/REC-SVG-20010904/DTD/svg10.dtd">
<svg version="1.0" xmlns="http://www.w3.org/2000/svg"
 width="512.000000pt" height="512.000000pt" viewBox="0 0 512.000000 512.000000"
 preserveAspectRatio="xMidYMid meet">
<metadata>
Created by potrace 1.16, written by Peter Selinger 2001-2019
</metadata>
<g transform="translate(0.000000,512.000000) scale(0.100000,-0.100000)"
fill="#000000" stroke="none">
<path d="M1541 3850 c-85 -13 -190 -71 -255 -141 -64 -68 -90 -114 -110 -191
-20 -81 -11 -1889 11 -1968 39 -143 151 -260 308 -320 l60 -23 845 -5 c949 -4
1016 -2 1117 48 93 46 174 130 220 226 l38 79 3 910 c2 646 -1 930 -9 978 -25
154 -129 291 -271 361 -68 34 -88 39 -185 46 -141 11 -1702 10 -1772 0z m1873
-109 c78 -27 141 -74 190 -141 80 -109 77 -62 74 -1110 l-3 -925 -22 -48 c-31
-66 -115 -152 -182 -184 l-56 -28 -935 0 -935 0 -58 27 c-75 35 -160 117 -194
187 l-28 56 -3 963 c-2 944 -2 964 18 1008 39 90 124 169 215 202 20 7 323 11
948 11 876 1 920 0 971 -18z"/>
<path d="M2115 3355 c-31 -30 -33 -75 -4 -101 20 -18 40 -19 283 -19 249 0
264 -1 318 -23 76 -31 150 -99 185 -170 25 -51 28 -67 28 -162 0 -125 -17
-171 -91 -250 -59 -63 -129 -97 -223 -109 -78 -10 -109 -26 -145 -75 -20 -26
-21 -43 -24 -299 -2 -262 -3 -273 -23 -289 -27 -23 -52 -23 -72 0 -15 16 -17
72 -19 504 -3 571 6 528 -114 528 -62 0 -75 -3 -84 -19 -6 -13 -10 -191 -10
-508 0 -487 0 -489 23 -533 27 -54 57 -77 127 -95 148 -40 259 -5 311 97 17
33 19 61 19 253 0 283 0 284 129 324 87 27 139 61 208 135 94 99 133 202 133
344 0 132 -51 252 -145 347 -33 33 -83 72 -111 87 -95 51 -145 58 -422 58
l-253 0 -24 -25z"/>
<path d="M1684 3310 c-36 -14 -64 -59 -64 -102 0 -85 102 -129 169 -72 89 75
3 218 -105 174z"/>
<path d="M3000 2383 c-28 -10 -60 -46 -60 -67 0 -12 17 -36 42 -58 l43 -36 3
-152 c3 -144 2 -153 -18 -175 -15 -16 -19 -29 -14 -49 9 -38 41 -56 97 -56 40
0 53 5 78 29 l29 29 0 196 c0 113 -4 206 -11 223 -27 73 -131 137 -189 116z"/>
</g>
</svg>